<svg version="1.0" xmlns="http://www.w3.org/2000/svg"
 width="235.000000pt" height="294.000000pt" viewBox="0 0 235.000000 294.000000"
 preserveAspectRatio="xMidYMid meet">
<metadata>
Created by potrace 1.16, written by Peter Selinger 2001-2019
</metadata>
<g transform="translate(0.000000,294.000000) scale(0.100000,-0.100000)"
fill="#FF0800" stroke="none">
<path d="M940 2691 c0 -238 -1 -249 -19 -254 -11 -3 -22 -2 -25 1 -3 3 -6 65
-6 139 0 126 -1 133 -20 133 -19 0 -20 -7 -20 -140 l0 -140 -26 -6 c-22 -6
-59 -4 -149 8 -17 3 -21 -5 -27 -47 -3 -27 -7 -83 -7 -122 l-1 -73 -230 0
c-223 0 -230 -1 -230 -20 0 -19 7 -20 235 -20 l235 0 0 -25 0 -25 -325 0 -325
0 0 -75 0 -75 340 0 c200 0 340 -4 340 -9 0 -5 3 -16 6 -25 6 -14 -28 -16
-340 -16 l-346 0 0 -75 0 -75 370 0 c355 0 370 -1 380 -19 5 -11 10 -22 10
-25 0 -3 -130 -6 -290 -6 -283 0 -290 0 -290 -20 0 -20 7 -20 305 -20 378 0
370 4 223 -120 -318 -269 -488 -542 -488 -785 0 -177 97 -402 257 -597 l55
-68 179 0 179 0 0 128 c0 71 3 131 6 135 3 3 15 1 25 -6 17 -11 19 -25 19
-134 l0 -123 75 0 75 0 0 70 c0 39 3 70 6 70 3 0 14 -5 25 -10 15 -9 19 -22
19 -70 l0 -60 75 0 c68 0 75 2 75 20 0 24 9 25 36 5 15 -11 57 -14 204 -15
l185 0 -110 39 c-60 21 -136 50 -167 64 l-58 26 0 667 0 667 31 49 31 48 304
0 c297 0 304 0 304 20 0 20 -7 20 -290 20 -159 0 -290 3 -290 6 0 3 5 14 10
25 10 18 25 19 380 19 l370 0 0 75 0 75 -346 0 c-312 0 -346 2 -340 16 3 9 6
20 6 25 0 5 140 9 340 9 l340 0 0 75 0 75 -325 0 -325 0 0 25 0 25 235 0 c228
0 235 1 235 20 0 19 -7 20 -230 20 l-230 0 -1 73 c0 39 -4 95 -7 122 -6 42
-10 50 -27 47 -90 -12 -127 -14 -149 -8 l-26 6 0 140 c0 133 -1 140 -20 140
-19 0 -20 -7 -20 -133 0 -74 -3 -136 -6 -139 -3 -3 -14 -4 -25 -1 -18 5 -19
16 -19 254 l0 249 -75 0 -75 0 0 -197 0 -198 -25 0 -25 0 0 198 0 197 -75 0
-75 0 0 -249z m168 -295 c6 -13 16 -44 22 -68 9 -34 28 -59 93 -121 66 -63 79
-80 67 -87 -8 -5 -10 -10 -5 -10 6 0 31 20 55 45 31 31 52 45 71 45 30 0 59
-23 59 -46 0 -8 0 -17 0 -21 0 -5 -8 -8 -19 -9 -32 -2 -41 -14 -41 -54 0 -113
-45 -197 -118 -221 -71 -22 -132 -100 -132 -169 0 -30 -1 -31 -37 -25 -68 12
-108 24 -141 45 -30 19 -36 40 -10 40 14 0 70 41 65 47 -3 2 -19 -3 -36 -11
-36 -19 -82 -21 -99 -4 -19 19 -14 28 16 28 28 0 118 37 110 45 -2 3 -20 0
-39 -5 -77 -23 -129 -5 -129 45 0 22 2 22 46 13 108 -23 272 5 289 50 4 12 -1
10 -18 -6 -31 -30 -96 -30 -123 -1 l-19 21 40 -6 40 -6 -44 13 c-25 7 -46 18
-49 25 -5 15 13 16 39 2 10 -6 19 -8 19 -5 0 3 -21 15 -47 27 -27 11 -54 25
-60 30 -20 16 -4 29 19 17 11 -6 18 -7 14 -1 -3 5 -19 15 -35 22 -28 11 -47
37 -36 48 3 3 15 -3 27 -13 13 -10 3 1 -21 25 -40 41 -43 68 -3 39 9 -7 2 2
-15 20 -18 18 -33 42 -33 53 0 21 0 21 28 -3 l27 -24 -24 27 c-25 29 -40 108
-20 108 6 0 23 -14 38 -31 83 -98 117 -129 169 -157 31 -16 68 -33 82 -37 41
-12 80 -45 81 -68 1 -19 2 -19 6 -4 6 25 -41 73 -86 88 -61 20 -110 48 -122
70 -12 24 6 149 22 149 6 0 5 8 -1 19 -12 24 -13 31 -2 31 5 0 14 -11 20 -24z
m-258 -864 c0 -17 -15 -45 -41 -77 -162 -195 -233 -358 -233 -530 0 -164 59
-297 197 -441 71 -75 97 -124 65 -124 -6 0 -52 42 -103 93 -324 328 -310 653
45 1046 30 33 58 61 63 61 4 0 7 -12 7 -28z m490 -658 c0 -343 -3 -624 -6
-624 -3 0 -14 5 -25 10 -18 10 -19 28 -19 612 0 542 2 603 16 619 9 10 21 16
25 13 5 -3 9 -286 9 -630z m-400 124 l-1 -483 -24 28 -25 28 0 432 c0 375 2
435 16 455 8 12 19 22 25 22 5 0 9 -187 9 -482z m200 -131 l0 -507 -25 16 -25
16 0 492 0 491 25 0 25 0 0 -508z m-290 131 l-1 -373 -20 25 c-27 32 -61 101
-85 170 -25 75 -26 241 -1 325 18 59 93 225 102 225 3 0 5 -168 5 -372z"/>
<path d="M90 20 c0 -20 7 -20 1025 -20 1018 0 1025 0 1025 20 0 20 -7 20
-1025 20 -1018 0 -1025 0 -1025 -20z"/>
</g>
</svg>
